<svg width="51" height="51" viewBox="0 0 51 51" fill="none" xmlns="http://www.w3.org/2000/svg">
<rect width="51" height="51" rx="10.2" fill="#2C61B8"/>
<path d="M37.4337 26.0777C37.6378 26.0777 37.8032 26.2432 37.8032 26.4473V28.4798C37.8032 28.6839 37.6378 28.8493 37.4337 28.8493H30.1488L32.5351 31.6908L33.8081 30.6213C34.355 30.1619 35.1707 30.2327 35.63 30.7797C36.0893 31.3267 36.0184 32.1426 35.4715 32.602L34.1985 33.6716L36.7173 36.6711C37.2423 37.2962 37.1613 38.2286 36.5363 38.7537C35.9113 39.2787 34.9791 39.1976 34.4541 38.5725L31.9352 35.5731L31.0299 36.3337C30.4831 36.7931 29.6674 36.7222 29.208 36.1752C28.7487 35.6282 28.8196 34.8123 29.3665 34.3529L30.2718 33.5923L26.2888 28.8493H24.6003L20.6173 33.5923L21.5226 34.3529C22.0694 34.8123 22.1404 35.6282 21.6811 36.1752C21.2217 36.7222 20.406 36.7931 19.8592 36.3337L18.9539 35.5731L16.435 38.5725C15.91 39.1976 14.9778 39.2787 14.3528 38.7537C13.7279 38.2286 13.6468 37.2962 14.1717 36.6711L16.6906 33.6716L15.4175 32.602C14.8707 32.1426 14.7997 31.3267 15.2591 30.7797C15.7184 30.2327 16.5341 30.1619 17.0809 30.6213L18.3541 31.6908L20.7403 28.8493H13.5663C13.3622 28.8493 13.1968 28.6839 13.1968 28.4798V26.4473C13.1968 26.2432 13.3622 26.0777 13.5663 26.0777H37.4337Z" fill="white"/>
<path d="M36.904 11.9C36.8828 13.4116 36.3403 14.8695 35.3681 16.0271L30.807 21.4584H37.4337C37.6378 21.4584 37.8032 21.6238 37.8032 21.8279V23.8604C37.8032 24.0645 37.6378 24.23 37.4337 24.23H13.5663C13.3622 24.23 13.1968 24.0645 13.1968 23.8604V21.8279C13.1968 21.6238 13.3622 21.4584 13.5663 21.4584H20.082L15.5209 16.0271C14.5488 14.8695 14.0063 13.4116 13.985 11.9C15.47 12.1818 16.8121 12.9681 17.7841 14.1257L23.942 21.4584H26.947L33.1049 14.1257C34.077 12.9681 35.4191 12.1818 36.904 11.9Z" fill="white"/>
</svg>
