<svg width="1239" height="30" viewBox="0 0 1239 30" fill="none" xmlns="http://www.w3.org/2000/svg">
<mask id="path-1-outside-1_7_248" maskUnits="userSpaceOnUse" x="-0.859497" y="-0.911865" width="44" height="31" fill="black">
<rect fill="white" x="-0.859497" y="-0.911865" width="44" height="31"/>
<path d="M28.8387 29.0881H0.140503L14.1493 0.0881348H42.8475L28.8387 29.0881Z"/>
</mask>
<path d="M28.8387 29.0881H0.140503L14.1493 0.0881348H42.8475L28.8387 29.0881Z" fill="#292929"/>
<path d="M28.8387 29.0881V29.1763H28.8941L28.9181 29.1265L28.8387 29.0881ZM0.140503 29.0881L0.0611324 29.0498L3.15309e-05 29.1763H0.140503V29.0881ZM14.1493 0.0881348V-1.11237e-05H14.094L14.0699 0.0497939L14.1493 0.0881348ZM42.8475 0.0881348L42.9269 0.126476L42.988 -1.11237e-05H42.8475V0.0881348ZM28.8387 29.0881V29H0.140503V29.0881V29.1763H28.8387V29.0881ZM0.140503 29.0881L0.219873 29.1265L14.2287 0.126476L14.1493 0.0881348L14.0699 0.0497939L0.0611324 29.0498L0.140503 29.0881ZM14.1493 0.0881348V0.176281H42.8475V0.0881348V-1.11237e-05H14.1493V0.0881348ZM42.8475 0.0881348L42.7682 0.0497939L28.7594 29.0498L28.8387 29.0881L28.9181 29.1265L42.9269 0.126476L42.8475 0.0881348Z" fill="black" mask="url(#path-1-outside-1_7_248)"/>
<mask id="path-3-outside-2_7_248" maskUnits="userSpaceOnUse" x="41.8475" y="-0.911865" width="44" height="31" fill="black">
<rect fill="white" x="41.8475" y="-0.911865" width="44" height="31"/>
<path d="M71.5458 29.0881H42.8475L56.8563 0.0881348H85.5546L71.5458 29.0881Z"/>
</mask>
<path d="M71.5458 29.0881H42.8475L56.8563 0.0881348H85.5546L71.5458 29.0881Z" fill="#292929"/>
<path d="M71.5458 29.0881V29.1763H71.6011L71.6251 29.1265L71.5458 29.0881ZM42.8475 29.0881L42.7682 29.0498L42.7071 29.1763H42.8475V29.0881ZM56.8563 0.0881348V-1.11237e-05H56.801L56.777 0.0497939L56.8563 0.0881348ZM85.5546 0.0881348L85.6339 0.126476L85.695 -1.11237e-05H85.5546V0.0881348ZM71.5458 29.0881V29H42.8475V29.0881V29.1763H71.5458V29.0881ZM42.8475 29.0881L42.9269 29.1265L56.9357 0.126476L56.8563 0.0881348L56.777 0.0497939L42.7682 29.0498L42.8475 29.0881ZM56.8563 0.0881348V0.176281H85.5546V0.0881348V-1.11237e-05H56.8563V0.0881348ZM85.5546 0.0881348L85.4752 0.0497939L71.4664 29.0498L71.5458 29.0881L71.6251 29.1265L85.6339 0.126476L85.5546 0.0881348Z" fill="black" mask="url(#path-3-outside-2_7_248)"/>
<mask id="path-5-outside-3_7_248" maskUnits="userSpaceOnUse" x="84.5546" y="-0.911865" width="44" height="31" fill="black">
<rect fill="white" x="84.5546" y="-0.911865" width="44" height="31"/>
<path d="M114.253 29.0881H85.5546L99.5634 0.0881348H128.262L114.253 29.0881Z"/>
</mask>
<path d="M114.253 29.0881H85.5546L99.5634 0.0881348H128.262L114.253 29.0881Z" fill="#292929"/>
<path d="M114.253 29.0881V29.1763H114.308L114.332 29.1265L114.253 29.0881ZM85.5546 29.0881L85.4752 29.0498L85.4141 29.1763H85.5546V29.0881ZM99.5634 0.0881348V-1.11237e-05H99.508L99.484 0.0497939L99.5634 0.0881348ZM128.262 0.0881348L128.341 0.126476L128.402 -1.11237e-05H128.262V0.0881348ZM114.253 29.0881V29H85.5546V29.0881V29.1763H114.253V29.0881ZM85.5546 29.0881L85.6339 29.1265L99.6427 0.126476L99.5634 0.0881348L99.484 0.0497939L85.4752 29.0498L85.5546 29.0881ZM99.5634 0.0881348V0.176281H128.262V0.0881348V-1.11237e-05H99.5634V0.0881348ZM128.262 0.0881348L128.182 0.0497939L114.173 29.0498L114.253 29.0881L114.332 29.1265L128.341 0.126476L128.262 0.0881348Z" fill="black" mask="url(#path-5-outside-3_7_248)"/>
<mask id="path-7-outside-4_7_248" maskUnits="userSpaceOnUse" x="127.262" y="-0.911865" width="44" height="31" fill="black">
<rect fill="white" x="127.262" y="-0.911865" width="44" height="31"/>
<path d="M156.96 29.0881H128.262L142.27 0.0881348H170.969L156.96 29.0881Z"/>
</mask>
<path d="M156.96 29.0881H128.262L142.27 0.0881348H170.969L156.96 29.0881Z" fill="#292929"/>
<path d="M156.96 29.0881V29.1763H157.015L157.039 29.1265L156.96 29.0881ZM128.262 29.0881L128.182 29.0498L128.121 29.1763H128.262V29.0881ZM142.27 0.0881348V-1.11237e-05H142.215L142.191 0.0497939L142.27 0.0881348ZM170.969 0.0881348L171.048 0.126476L171.109 -1.11237e-05H170.969V0.0881348ZM156.96 29.0881V29H128.262V29.0881V29.1763H156.96V29.0881ZM128.262 29.0881L128.341 29.1265L142.35 0.126476L142.27 0.0881348L142.191 0.0497939L128.182 29.0498L128.262 29.0881ZM142.27 0.0881348V0.176281H170.969V0.0881348V-1.11237e-05H142.27V0.0881348ZM170.969 0.0881348L170.889 0.0497939L156.88 29.0498L156.96 29.0881L157.039 29.1265L171.048 0.126476L170.969 0.0881348Z" fill="black" mask="url(#path-7-outside-4_7_248)"/>
<mask id="path-9-outside-5_7_248" maskUnits="userSpaceOnUse" x="169.969" y="-0.911865" width="44" height="31" fill="black">
<rect fill="white" x="169.969" y="-0.911865" width="44" height="31"/>
<path d="M199.667 29.0881H170.969L184.977 0.0881348H213.676L199.667 29.0881Z"/>
</mask>
<path d="M199.667 29.0881H170.969L184.977 0.0881348H213.676L199.667 29.0881Z" fill="#292929"/>
<path d="M199.667 29.0881V29.1763H199.722L199.746 29.1265L199.667 29.0881ZM170.969 29.0881L170.889 29.0498L170.828 29.1763H170.969V29.0881ZM184.977 0.0881348V-1.11237e-05H184.922L184.898 0.0497939L184.977 0.0881348ZM213.676 0.0881348L213.755 0.126476L213.816 -1.11237e-05H213.676V0.0881348ZM199.667 29.0881V29H170.969V29.0881V29.1763H199.667V29.0881ZM170.969 29.0881L171.048 29.1265L185.057 0.126476L184.977 0.0881348L184.898 0.0497939L170.889 29.0498L170.969 29.0881ZM184.977 0.0881348V0.176281H213.676V0.0881348V-1.11237e-05H184.977V0.0881348ZM213.676 0.0881348L213.596 0.0497939L199.587 29.0498L199.667 29.0881L199.746 29.1265L213.755 0.126476L213.676 0.0881348Z" fill="black" mask="url(#path-9-outside-5_7_248)"/>
<mask id="path-11-outside-6_7_248" maskUnits="userSpaceOnUse" x="212.676" y="-0.911865" width="44" height="31" fill="black">
<rect fill="white" x="212.676" y="-0.911865" width="44" height="31"/>
<path d="M242.374 29.0881H213.676L227.684 0.0881348H256.383L242.374 29.0881Z"/>
</mask>
<path d="M242.374 29.0881H213.676L227.684 0.0881348H256.383L242.374 29.0881Z" fill="#292929"/>
<path d="M242.374 29.0881V29.1763H242.429L242.453 29.1265L242.374 29.0881ZM213.676 29.0881L213.596 29.0498L213.535 29.1763H213.676V29.0881ZM227.684 0.0881348V-1.11237e-05H227.629L227.605 0.0497939L227.684 0.0881348ZM256.383 0.0881348L256.462 0.126476L256.523 -1.11237e-05H256.383V0.0881348ZM242.374 29.0881V29H213.676V29.0881V29.1763H242.374V29.0881ZM213.676 29.0881L213.755 29.1265L227.764 0.126476L227.684 0.0881348L227.605 0.0497939L213.596 29.0498L213.676 29.0881ZM227.684 0.0881348V0.176281H256.383V0.0881348V-1.11237e-05H227.684V0.0881348ZM256.383 0.0881348L256.303 0.0497939L242.295 29.0498L242.374 29.0881L242.453 29.1265L256.462 0.126476L256.383 0.0881348Z" fill="black" mask="url(#path-11-outside-6_7_248)"/>
<mask id="path-13-outside-7_7_248" maskUnits="userSpaceOnUse" x="255.383" y="-0.911865" width="44" height="31" fill="black">
<rect fill="white" x="255.383" y="-0.911865" width="44" height="31"/>
<path d="M285.081 29.0881H256.383L270.391 0.0881348H299.09L285.081 29.0881Z"/>
</mask>
<path d="M285.081 29.0881H256.383L270.391 0.0881348H299.09L285.081 29.0881Z" fill="#292929"/>
<path d="M285.081 29.0881V29.1763H285.136L285.16 29.1265L285.081 29.0881ZM256.383 29.0881L256.303 29.0498L256.242 29.1763H256.383V29.0881ZM270.391 0.0881348V-1.11237e-05H270.336L270.312 0.0497939L270.391 0.0881348ZM299.09 0.0881348L299.169 0.126476L299.23 -1.11237e-05H299.09V0.0881348ZM285.081 29.0881V29H256.383V29.0881V29.1763H285.081V29.0881ZM256.383 29.0881L256.462 29.1265L270.471 0.126476L270.391 0.0881348L270.312 0.0497939L256.303 29.0498L256.383 29.0881ZM270.391 0.0881348V0.176281H299.09V0.0881348V-1.11237e-05H270.391V0.0881348ZM299.09 0.0881348L299.01 0.0497939L285.002 29.0498L285.081 29.0881L285.16 29.1265L299.169 0.126476L299.09 0.0881348Z" fill="black" mask="url(#path-13-outside-7_7_248)"/>
<mask id="path-15-outside-8_7_248" maskUnits="userSpaceOnUse" x="298.09" y="-0.911865" width="44" height="31" fill="black">
<rect fill="white" x="298.09" y="-0.911865" width="44" height="31"/>
<path d="M327.788 29.0881H299.09L313.099 0.0881348H341.797L327.788 29.0881Z"/>
</mask>
<path d="M327.788 29.0881H299.09L313.099 0.0881348H341.797L327.788 29.0881Z" fill="#292929"/>
<path d="M327.788 29.0881V29.1763H327.843L327.867 29.1265L327.788 29.0881ZM299.09 29.0881L299.01 29.0498L298.949 29.1763H299.09V29.0881ZM313.099 0.0881348V-1.11237e-05H313.043L313.019 0.0497939L313.099 0.0881348ZM341.797 0.0881348L341.876 0.126476L341.937 -1.11237e-05H341.797V0.0881348ZM327.788 29.0881V29H299.09V29.0881V29.1763H327.788V29.0881ZM299.09 29.0881L299.169 29.1265L313.178 0.126476L313.099 0.0881348L313.019 0.0497939L299.01 29.0498L299.09 29.0881ZM313.099 0.0881348V0.176281H341.797V0.0881348V-1.11237e-05H313.099V0.0881348ZM341.797 0.0881348L341.717 0.0497939L327.709 29.0498L327.788 29.0881L327.867 29.1265L341.876 0.126476L341.797 0.0881348Z" fill="black" mask="url(#path-15-outside-8_7_248)"/>
<mask id="path-17-outside-9_7_248" maskUnits="userSpaceOnUse" x="340.797" y="-0.911865" width="44" height="31" fill="black">
<rect fill="white" x="340.797" y="-0.911865" width="44" height="31"/>
<path d="M370.495 29.0881H341.797L355.806 0.0881348H384.504L370.495 29.0881Z"/>
</mask>
<path d="M370.495 29.0881H341.797L355.806 0.0881348H384.504L370.495 29.0881Z" fill="#292929"/>
<path d="M370.495 29.0881V29.1763H370.55L370.574 29.1265L370.495 29.0881ZM341.797 29.0881L341.717 29.0498L341.656 29.1763H341.797V29.0881ZM355.806 0.0881348V-1.11237e-05H355.75L355.726 0.0497939L355.806 0.0881348ZM384.504 0.0881348L384.583 0.126476L384.644 -1.11237e-05H384.504V0.0881348ZM370.495 29.0881V29H341.797V29.0881V29.1763H370.495V29.0881ZM341.797 29.0881L341.876 29.1265L355.885 0.126476L355.806 0.0881348L355.726 0.0497939L341.717 29.0498L341.797 29.0881ZM355.806 0.0881348V0.176281H384.504V0.0881348V-1.11237e-05H355.806V0.0881348ZM384.504 0.0881348L384.424 0.0497939L370.416 29.0498L370.495 29.0881L370.574 29.1265L384.583 0.126476L384.504 0.0881348Z" fill="black" mask="url(#path-17-outside-9_7_248)"/>
<mask id="path-19-outside-10_7_248" maskUnits="userSpaceOnUse" x="383.504" y="-0.911865" width="44" height="31" fill="black">
<rect fill="white" x="383.504" y="-0.911865" width="44" height="31"/>
<path d="M413.202 29.0881H384.504L398.513 0.0881348H427.211L413.202 29.0881Z"/>
</mask>
<path d="M413.202 29.0881H384.504L398.513 0.0881348H427.211L413.202 29.0881Z" fill="#292929"/>
<path d="M413.202 29.0881V29.1763H413.257L413.281 29.1265L413.202 29.0881ZM384.504 29.0881L384.424 29.0498L384.363 29.1763H384.504V29.0881ZM398.513 0.0881348V-1.11237e-05H398.457L398.433 0.0497939L398.513 0.0881348ZM427.211 0.0881348L427.29 0.126476L427.351 -1.11237e-05H427.211V0.0881348ZM413.202 29.0881V29H384.504V29.0881V29.1763H413.202V29.0881ZM384.504 29.0881L384.583 29.1265L398.592 0.126476L398.513 0.0881348L398.433 0.0497939L384.424 29.0498L384.504 29.0881ZM398.513 0.0881348V0.176281H427.211V0.0881348V-1.11237e-05H398.513V0.0881348ZM427.211 0.0881348L427.131 0.0497939L413.123 29.0498L413.202 29.0881L413.281 29.1265L427.29 0.126476L427.211 0.0881348Z" fill="black" mask="url(#path-19-outside-10_7_248)"/>
<mask id="path-21-outside-11_7_248" maskUnits="userSpaceOnUse" x="426.211" y="-0.911865" width="44" height="31" fill="black">
<rect fill="white" x="426.211" y="-0.911865" width="44" height="31"/>
<path d="M455.909 29.0881H427.211L441.22 0.0881348H469.918L455.909 29.0881Z"/>
</mask>
<path d="M455.909 29.0881H427.211L441.22 0.0881348H469.918L455.909 29.0881Z" fill="#292929"/>
<path d="M455.909 29.0881V29.1763H455.964L455.988 29.1265L455.909 29.0881ZM427.211 29.0881L427.131 29.0498L427.07 29.1763H427.211V29.0881ZM441.22 0.0881348V-1.11237e-05H441.164L441.14 0.0497939L441.22 0.0881348ZM469.918 0.0881348L469.997 0.126476L470.058 -1.11237e-05H469.918V0.0881348ZM455.909 29.0881V29H427.211V29.0881V29.1763H455.909V29.0881ZM427.211 29.0881L427.29 29.1265L441.299 0.126476L441.22 0.0881348L441.14 0.0497939L427.131 29.0498L427.211 29.0881ZM441.22 0.0881348V0.176281H469.918V0.0881348V-1.11237e-05H441.22V0.0881348ZM469.918 0.0881348L469.838 0.0497939L455.83 29.0498L455.909 29.0881L455.988 29.1265L469.997 0.126476L469.918 0.0881348Z" fill="black" mask="url(#path-21-outside-11_7_248)"/>
<mask id="path-23-outside-12_7_248" maskUnits="userSpaceOnUse" x="468.918" y="-0.911865" width="44" height="31" fill="black">
<rect fill="white" x="468.918" y="-0.911865" width="44" height="31"/>
<path d="M498.616 29.0881H469.918L483.927 0.0881348H512.625L498.616 29.0881Z"/>
</mask>
<path d="M498.616 29.0881H469.918L483.927 0.0881348H512.625L498.616 29.0881Z" fill="#292929"/>
<path d="M498.616 29.0881V29.1763H498.671L498.695 29.1265L498.616 29.0881ZM469.918 29.0881L469.838 29.0498L469.777 29.1763H469.918V29.0881ZM483.927 0.0881348V-1.11237e-05H483.871L483.847 0.0497939L483.927 0.0881348ZM512.625 0.0881348L512.704 0.126476L512.765 -1.11237e-05H512.625V0.0881348ZM498.616 29.0881V29H469.918V29.0881V29.1763H498.616V29.0881ZM469.918 29.0881L469.997 29.1265L484.006 0.126476L483.927 0.0881348L483.847 0.0497939L469.838 29.0498L469.918 29.0881ZM483.927 0.0881348V0.176281H512.625V0.0881348V-1.11237e-05H483.927V0.0881348ZM512.625 0.0881348L512.546 0.0497939L498.537 29.0498L498.616 29.0881L498.695 29.1265L512.704 0.126476L512.625 0.0881348Z" fill="black" mask="url(#path-23-outside-12_7_248)"/>
<mask id="path-25-outside-13_7_248" maskUnits="userSpaceOnUse" x="511.625" y="-0.911865" width="44" height="31" fill="black">
<rect fill="white" x="511.625" y="-0.911865" width="44" height="31"/>
<path d="M541.323 29.0881H512.625L526.634 0.0881348H555.332L541.323 29.0881Z"/>
</mask>
<path d="M541.323 29.0881H512.625L526.634 0.0881348H555.332L541.323 29.0881Z" fill="#292929"/>
<path d="M541.323 29.0881V29.1763H541.378L541.402 29.1265L541.323 29.0881ZM512.625 29.0881L512.546 29.0498L512.484 29.1763H512.625V29.0881ZM526.634 0.0881348V-1.11237e-05H526.578L526.554 0.0497939L526.634 0.0881348ZM555.332 0.0881348L555.411 0.126476L555.472 -1.11237e-05H555.332V0.0881348ZM541.323 29.0881V29H512.625V29.0881V29.1763H541.323V29.0881ZM512.625 29.0881L512.704 29.1265L526.713 0.126476L526.634 0.0881348L526.554 0.0497939L512.546 29.0498L512.625 29.0881ZM526.634 0.0881348V0.176281H555.332V0.0881348V-1.11237e-05H526.634V0.0881348ZM555.332 0.0881348L555.253 0.0497939L541.244 29.0498L541.323 29.0881L541.402 29.1265L555.411 0.126476L555.332 0.0881348Z" fill="black" mask="url(#path-25-outside-13_7_248)"/>
<mask id="path-27-outside-14_7_248" maskUnits="userSpaceOnUse" x="554.332" y="-0.911865" width="44" height="31" fill="black">
<rect fill="white" x="554.332" y="-0.911865" width="44" height="31"/>
<path d="M584.03 29.0881H555.332L569.341 0.0881348H598.039L584.03 29.0881Z"/>
</mask>
<path d="M584.03 29.0881H555.332L569.341 0.0881348H598.039L584.03 29.0881Z" fill="#292929"/>
<path d="M584.03 29.0881V29.1763H584.085L584.11 29.1265L584.03 29.0881ZM555.332 29.0881L555.253 29.0498L555.191 29.1763H555.332V29.0881ZM569.341 0.0881348V-1.11237e-05H569.285L569.261 0.0497939L569.341 0.0881348ZM598.039 0.0881348L598.118 0.126476L598.179 -1.11237e-05H598.039V0.0881348ZM584.03 29.0881V29H555.332V29.0881V29.1763H584.03V29.0881ZM555.332 29.0881L555.411 29.1265L569.42 0.126476L569.341 0.0881348L569.261 0.0497939L555.253 29.0498L555.332 29.0881ZM569.341 0.0881348V0.176281H598.039V0.0881348V-1.11237e-05H569.341V0.0881348ZM598.039 0.0881348L597.96 0.0497939L583.951 29.0498L584.03 29.0881L584.11 29.1265L598.118 0.126476L598.039 0.0881348Z" fill="black" mask="url(#path-27-outside-14_7_248)"/>
<mask id="path-29-outside-15_7_248" maskUnits="userSpaceOnUse" x="597.039" y="-0.911865" width="44" height="31" fill="black">
<rect fill="white" x="597.039" y="-0.911865" width="44" height="31"/>
<path d="M626.737 29.0881H598.039L612.048 0.0881348H640.746L626.737 29.0881Z"/>
</mask>
<path d="M626.737 29.0881H598.039L612.048 0.0881348H640.746L626.737 29.0881Z" fill="#292929"/>
<path d="M626.737 29.0881V29.1763H626.792L626.817 29.1265L626.737 29.0881ZM598.039 29.0881L597.96 29.0498L597.898 29.1763H598.039V29.0881ZM612.048 0.0881348V-1.11237e-05H611.992L611.968 0.0497939L612.048 0.0881348ZM640.746 0.0881348L640.825 0.126476L640.886 -1.11237e-05H640.746V0.0881348ZM626.737 29.0881V29H598.039V29.0881V29.1763H626.737V29.0881ZM598.039 29.0881L598.118 29.1265L612.127 0.126476L612.048 0.0881348L611.968 0.0497939L597.96 29.0498L598.039 29.0881ZM612.048 0.0881348V0.176281H640.746V0.0881348V-1.11237e-05H612.048V0.0881348ZM640.746 0.0881348L640.667 0.0497939L626.658 29.0498L626.737 29.0881L626.817 29.1265L640.825 0.126476L640.746 0.0881348Z" fill="black" mask="url(#path-29-outside-15_7_248)"/>
<mask id="path-31-outside-16_7_248" maskUnits="userSpaceOnUse" x="639.746" y="-0.911865" width="44" height="31" fill="black">
<rect fill="white" x="639.746" y="-0.911865" width="44" height="31"/>
<path d="M669.444 29.0881H640.746L654.755 0.0881348H683.453L669.444 29.0881Z"/>
</mask>
<path d="M669.444 29.0881H640.746L654.755 0.0881348H683.453L669.444 29.0881Z" fill="#292929"/>
<path d="M669.444 29.0881V29.1763H669.5L669.524 29.1265L669.444 29.0881ZM640.746 29.0881L640.667 29.0498L640.606 29.1763H640.746V29.0881ZM654.755 0.0881348V-1.11237e-05H654.699L654.675 0.0497939L654.755 0.0881348ZM683.453 0.0881348L683.532 0.126476L683.593 -1.11237e-05H683.453V0.0881348ZM669.444 29.0881V29H640.746V29.0881V29.1763H669.444V29.0881ZM640.746 29.0881L640.825 29.1265L654.834 0.126476L654.755 0.0881348L654.675 0.0497939L640.667 29.0498L640.746 29.0881ZM654.755 0.0881348V0.176281H683.453V0.0881348V-1.11237e-05H654.755V0.0881348ZM683.453 0.0881348L683.374 0.0497939L669.365 29.0498L669.444 29.0881L669.524 29.1265L683.532 0.126476L683.453 0.0881348Z" fill="black" mask="url(#path-31-outside-16_7_248)"/>
<mask id="path-33-outside-17_7_248" maskUnits="userSpaceOnUse" x="682.453" y="-0.911865" width="44" height="31" fill="black">
<rect fill="white" x="682.453" y="-0.911865" width="44" height="31"/>
<path d="M712.151 29.0881H683.453L697.462 0.0881348H726.16L712.151 29.0881Z"/>
</mask>
<path d="M712.151 29.0881H683.453L697.462 0.0881348H726.16L712.151 29.0881Z" fill="#292929"/>
<path d="M712.151 29.0881V29.1763H712.207L712.231 29.1265L712.151 29.0881ZM683.453 29.0881L683.374 29.0498L683.313 29.1763H683.453V29.0881ZM697.462 0.0881348V-1.11237e-05H697.406L697.382 0.0497939L697.462 0.0881348ZM726.16 0.0881348L726.239 0.126476L726.301 -1.11237e-05H726.16V0.0881348ZM712.151 29.0881V29H683.453V29.0881V29.1763H712.151V29.0881ZM683.453 29.0881L683.532 29.1265L697.541 0.126476L697.462 0.0881348L697.382 0.0497939L683.374 29.0498L683.453 29.0881ZM697.462 0.0881348V0.176281H726.16V0.0881348V-1.11237e-05H697.462V0.0881348ZM726.16 0.0881348L726.081 0.0497939L712.072 29.0498L712.151 29.0881L712.231 29.1265L726.239 0.126476L726.16 0.0881348Z" fill="black" mask="url(#path-33-outside-17_7_248)"/>
<mask id="path-35-outside-18_7_248" maskUnits="userSpaceOnUse" x="725.16" y="-0.911865" width="44" height="31" fill="black">
<rect fill="white" x="725.16" y="-0.911865" width="44" height="31"/>
<path d="M754.858 29.0881H726.16L740.169 0.0881348H768.867L754.858 29.0881Z"/>
</mask>
<path d="M754.858 29.0881H726.16L740.169 0.0881348H768.867L754.858 29.0881Z" fill="#292929"/>
<path d="M754.858 29.0881V29.1763H754.914L754.938 29.1265L754.858 29.0881ZM726.16 29.0881L726.081 29.0498L726.02 29.1763H726.16V29.0881ZM740.169 0.0881348V-1.11237e-05H740.114L740.089 0.0497939L740.169 0.0881348ZM768.867 0.0881348L768.946 0.126476L769.008 -1.11237e-05H768.867V0.0881348ZM754.858 29.0881V29H726.16V29.0881V29.1763H754.858V29.0881ZM726.16 29.0881L726.239 29.1265L740.248 0.126476L740.169 0.0881348L740.089 0.0497939L726.081 29.0498L726.16 29.0881ZM740.169 0.0881348V0.176281H768.867V0.0881348V-1.11237e-05H740.169V0.0881348ZM768.867 0.0881348L768.788 0.0497939L754.779 29.0498L754.858 29.0881L754.938 29.1265L768.946 0.126476L768.867 0.0881348Z" fill="black" mask="url(#path-35-outside-18_7_248)"/>
<mask id="path-37-outside-19_7_248" maskUnits="userSpaceOnUse" x="767.867" y="-0.911865" width="44" height="31" fill="black">
<rect fill="white" x="767.867" y="-0.911865" width="44" height="31"/>
<path d="M797.565 29.0881H768.867L782.876 0.0881348H811.574L797.565 29.0881Z"/>
</mask>
<path d="M797.565 29.0881H768.867L782.876 0.0881348H811.574L797.565 29.0881Z" fill="#292929"/>
<path d="M797.565 29.0881V29.1763H797.621L797.645 29.1265L797.565 29.0881ZM768.867 29.0881L768.788 29.0498L768.727 29.1763H768.867V29.0881ZM782.876 0.0881348V-1.11237e-05H782.821L782.796 0.0497939L782.876 0.0881348ZM811.574 0.0881348L811.653 0.126476L811.715 -1.11237e-05H811.574V0.0881348ZM797.565 29.0881V29H768.867V29.0881V29.1763H797.565V29.0881ZM768.867 29.0881L768.946 29.1265L782.955 0.126476L782.876 0.0881348L782.796 0.0497939L768.788 29.0498L768.867 29.0881ZM782.876 0.0881348V0.176281H811.574V0.0881348V-1.11237e-05H782.876V0.0881348ZM811.574 0.0881348L811.495 0.0497939L797.486 29.0498L797.565 29.0881L797.645 29.1265L811.653 0.126476L811.574 0.0881348Z" fill="black" mask="url(#path-37-outside-19_7_248)"/>
<mask id="path-39-outside-20_7_248" maskUnits="userSpaceOnUse" x="810.574" y="-0.911865" width="44" height="31" fill="black">
<rect fill="white" x="810.574" y="-0.911865" width="44" height="31"/>
<path d="M840.272 29.0881H811.574L825.583 0.0881348H854.281L840.272 29.0881Z"/>
</mask>
<path d="M840.272 29.0881H811.574L825.583 0.0881348H854.281L840.272 29.0881Z" fill="#292929"/>
<path d="M840.272 29.0881V29.1763H840.328L840.352 29.1265L840.272 29.0881ZM811.574 29.0881L811.495 29.0498L811.434 29.1763H811.574V29.0881ZM825.583 0.0881348V-1.11237e-05H825.528L825.504 0.0497939L825.583 0.0881348ZM854.281 0.0881348L854.361 0.126476L854.422 -1.11237e-05H854.281V0.0881348ZM840.272 29.0881V29H811.574V29.0881V29.1763H840.272V29.0881ZM811.574 29.0881L811.653 29.1265L825.662 0.126476L825.583 0.0881348L825.504 0.0497939L811.495 29.0498L811.574 29.0881ZM825.583 0.0881348V0.176281H854.281V0.0881348V-1.11237e-05H825.583V0.0881348ZM854.281 0.0881348L854.202 0.0497939L840.193 29.0498L840.272 29.0881L840.352 29.1265L854.361 0.126476L854.281 0.0881348Z" fill="black" mask="url(#path-39-outside-20_7_248)"/>
<mask id="path-41-outside-21_7_248" maskUnits="userSpaceOnUse" x="853.281" y="-0.911865" width="44" height="31" fill="black">
<rect fill="white" x="853.281" y="-0.911865" width="44" height="31"/>
<path d="M882.979 29.0881H854.281L868.29 0.0881348H896.988L882.979 29.0881Z"/>
</mask>
<path d="M882.979 29.0881H854.281L868.29 0.0881348H896.988L882.979 29.0881Z" fill="#292929"/>
<path d="M882.979 29.0881V29.1763H883.035L883.059 29.1265L882.979 29.0881ZM854.281 29.0881L854.202 29.0498L854.141 29.1763H854.281V29.0881ZM868.29 0.0881348V-1.11237e-05H868.235L868.211 0.0497939L868.29 0.0881348ZM896.988 0.0881348L897.068 0.126476L897.129 -1.11237e-05H896.988V0.0881348ZM882.979 29.0881V29H854.281V29.0881V29.1763H882.979V29.0881ZM854.281 29.0881L854.36 29.1265L868.369 0.126476L868.29 0.0881348L868.211 0.0497939L854.202 29.0498L854.281 29.0881ZM868.29 0.0881348V0.176281H896.988V0.0881348V-1.11237e-05H868.29V0.0881348ZM896.988 0.0881348L896.909 0.0497939L882.9 29.0498L882.979 29.0881L883.059 29.1265L897.068 0.126476L896.988 0.0881348Z" fill="black" mask="url(#path-41-outside-21_7_248)"/>
<mask id="path-43-outside-22_7_248" maskUnits="userSpaceOnUse" x="895.988" y="-0.911865" width="44" height="31" fill="black">
<rect fill="white" x="895.988" y="-0.911865" width="44" height="31"/>
<path d="M925.686 29.0881H896.988L910.997 0.0881348H939.695L925.686 29.0881Z"/>
</mask>
<path d="M925.686 29.0881H896.988L910.997 0.0881348H939.695L925.686 29.0881Z" fill="#292929"/>
<path d="M925.686 29.0881V29.1763H925.742L925.766 29.1265L925.686 29.0881ZM896.988 29.0881L896.909 29.0498L896.848 29.1763H896.988V29.0881ZM910.997 0.0881348V-1.11237e-05H910.942L910.918 0.0497939L910.997 0.0881348ZM939.695 0.0881348L939.775 0.126476L939.836 -1.11237e-05H939.695V0.0881348ZM925.686 29.0881V29H896.988V29.0881V29.1763H925.686V29.0881ZM896.988 29.0881L897.068 29.1265L911.076 0.126476L910.997 0.0881348L910.918 0.0497939L896.909 29.0498L896.988 29.0881ZM910.997 0.0881348V0.176281H939.695V0.0881348V-1.11237e-05H910.997V0.0881348ZM939.695 0.0881348L939.616 0.0497939L925.607 29.0498L925.686 29.0881L925.766 29.1265L939.775 0.126476L939.695 0.0881348Z" fill="black" mask="url(#path-43-outside-22_7_248)"/>
<mask id="path-45-outside-23_7_248" maskUnits="userSpaceOnUse" x="938.695" y="-0.911865" width="44" height="31" fill="black">
<rect fill="white" x="938.695" y="-0.911865" width="44" height="31"/>
<path d="M968.393 29.0881H939.695L953.704 0.0881348H982.402L968.393 29.0881Z"/>
</mask>
<path d="M968.393 29.0881H939.695L953.704 0.0881348H982.402L968.393 29.0881Z" fill="#292929"/>
<path d="M968.393 29.0881V29.1763H968.449L968.473 29.1265L968.393 29.0881ZM939.695 29.0881L939.616 29.0498L939.555 29.1763H939.695V29.0881ZM953.704 0.0881348V-1.11237e-05H953.649L953.625 0.0497939L953.704 0.0881348ZM982.402 0.0881348L982.482 0.126476L982.543 -1.11237e-05H982.402V0.0881348ZM968.393 29.0881V29H939.695V29.0881V29.1763H968.393V29.0881ZM939.695 29.0881L939.775 29.1265L953.783 0.126476L953.704 0.0881348L953.625 0.0497939L939.616 29.0498L939.695 29.0881ZM953.704 0.0881348V0.176281H982.402V0.0881348V-1.11237e-05H953.704V0.0881348ZM982.402 0.0881348L982.323 0.0497939L968.314 29.0498L968.393 29.0881L968.473 29.1265L982.482 0.126476L982.402 0.0881348Z" fill="black" mask="url(#path-45-outside-23_7_248)"/>
<mask id="path-47-outside-24_7_248" maskUnits="userSpaceOnUse" x="981.402" y="-0.911865" width="44" height="31" fill="black">
<rect fill="white" x="981.402" y="-0.911865" width="44" height="31"/>
<path d="M1011.1 29.0881H982.402L996.411 0.0881348H1025.11L1011.1 29.0881Z"/>
</mask>
<path d="M1011.1 29.0881H982.402L996.411 0.0881348H1025.11L1011.1 29.0881Z" fill="#292929"/>
<path d="M1011.1 29.0881V29.1763H1011.16L1011.18 29.1265L1011.1 29.0881ZM982.402 29.0881L982.323 29.0498L982.262 29.1763H982.402V29.0881ZM996.411 0.0881348V-1.11237e-05H996.356L996.332 0.0497939L996.411 0.0881348ZM1025.11 0.0881348L1025.19 0.126476L1025.25 -1.11237e-05H1025.11V0.0881348ZM1011.1 29.0881V29H982.402V29.0881V29.1763H1011.1V29.0881ZM982.402 29.0881L982.482 29.1265L996.49 0.126476L996.411 0.0881348L996.332 0.0497939L982.323 29.0498L982.402 29.0881ZM996.411 0.0881348V0.176281H1025.11V0.0881348V-1.11237e-05H996.411V0.0881348ZM1025.11 0.0881348L1025.03 0.0497939L1011.02 29.0498L1011.1 29.0881L1011.18 29.1265L1025.19 0.126476L1025.11 0.0881348Z" fill="black" mask="url(#path-47-outside-24_7_248)"/>
<mask id="path-49-outside-25_7_248" maskUnits="userSpaceOnUse" x="1024.11" y="-0.911865" width="44" height="31" fill="black">
<rect fill="white" x="1024.11" y="-0.911865" width="44" height="31"/>
<path d="M1053.81 29.0881H1025.11L1039.12 0.0881348H1067.82L1053.81 29.0881Z"/>
</mask>
<path d="M1053.81 29.0881H1025.11L1039.12 0.0881348H1067.82L1053.81 29.0881Z" fill="#292929"/>
<path d="M1053.81 29.0881V29.1763H1053.86L1053.89 29.1265L1053.81 29.0881ZM1025.11 29.0881L1025.03 29.0498L1024.97 29.1763H1025.11V29.0881ZM1039.12 0.0881348V-1.11237e-05H1039.06L1039.04 0.0497939L1039.12 0.0881348ZM1067.82 0.0881348L1067.9 0.126476L1067.96 -1.11237e-05H1067.82V0.0881348ZM1053.81 29.0881V29H1025.11V29.0881V29.1763H1053.81V29.0881ZM1025.11 29.0881L1025.19 29.1265L1039.2 0.126476L1039.12 0.0881348L1039.04 0.0497939L1025.03 29.0498L1025.11 29.0881ZM1039.12 0.0881348V0.176281H1067.82V0.0881348V-1.11237e-05H1039.12V0.0881348ZM1067.82 0.0881348L1067.74 0.0497939L1053.73 29.0498L1053.81 29.0881L1053.89 29.1265L1067.9 0.126476L1067.82 0.0881348Z" fill="black" mask="url(#path-49-outside-25_7_248)"/>
<mask id="path-51-outside-26_7_248" maskUnits="userSpaceOnUse" x="1066.82" y="-0.911865" width="44" height="31" fill="black">
<rect fill="white" x="1066.82" y="-0.911865" width="44" height="31"/>
<path d="M1096.51 29.0881H1067.82L1081.83 0.0881348H1110.52L1096.51 29.0881Z"/>
</mask>
<path d="M1096.51 29.0881H1067.82L1081.83 0.0881348H1110.52L1096.51 29.0881Z" fill="#292929"/>
<path d="M1096.51 29.0881V29.1763H1096.57L1096.59 29.1265L1096.51 29.0881ZM1067.82 29.0881L1067.74 29.0498L1067.68 29.1763H1067.82V29.0881ZM1081.83 0.0881348V-1.11237e-05H1081.77L1081.75 0.0497939L1081.83 0.0881348ZM1110.52 0.0881348L1110.6 0.126476L1110.66 -1.11237e-05H1110.52V0.0881348ZM1096.51 29.0881V29H1067.82V29.0881V29.1763H1096.51V29.0881ZM1067.82 29.0881L1067.9 29.1265L1081.9 0.126476L1081.83 0.0881348L1081.75 0.0497939L1067.74 29.0498L1067.82 29.0881ZM1081.83 0.0881348V0.176281H1110.52V0.0881348V-1.11237e-05H1081.83V0.0881348ZM1110.52 0.0881348L1110.44 0.0497939L1096.44 29.0498L1096.51 29.0881L1096.59 29.1265L1110.6 0.126476L1110.52 0.0881348Z" fill="black" mask="url(#path-51-outside-26_7_248)"/>
<mask id="path-53-outside-27_7_248" maskUnits="userSpaceOnUse" x="1109.52" y="-0.911865" width="44" height="31" fill="black">
<rect fill="white" x="1109.52" y="-0.911865" width="44" height="31"/>
<path d="M1139.22 29.0881H1110.52L1124.53 0.0881348H1153.23L1139.22 29.0881Z"/>
</mask>
<path d="M1139.22 29.0881H1110.52L1124.53 0.0881348H1153.23L1139.22 29.0881Z" fill="#292929"/>
<path d="M1139.22 29.0881V29.1763H1139.28L1139.3 29.1265L1139.22 29.0881ZM1110.52 29.0881L1110.44 29.0498L1110.38 29.1763H1110.52V29.0881ZM1124.53 0.0881348V-1.11237e-05H1124.48L1124.45 0.0497939L1124.53 0.0881348ZM1153.23 0.0881348L1153.31 0.126476L1153.37 -1.11237e-05H1153.23V0.0881348ZM1139.22 29.0881V29H1110.52V29.0881V29.1763H1139.22V29.0881ZM1110.52 29.0881L1110.6 29.1265L1124.61 0.126476L1124.53 0.0881348L1124.45 0.0497939L1110.44 29.0498L1110.52 29.0881ZM1124.53 0.0881348V0.176281H1153.23V0.0881348V-1.11237e-05H1124.53V0.0881348ZM1153.23 0.0881348L1153.15 0.0497939L1139.14 29.0498L1139.22 29.0881L1139.3 29.1265L1153.31 0.126476L1153.23 0.0881348Z" fill="black" mask="url(#path-53-outside-27_7_248)"/>
<mask id="path-55-outside-28_7_248" maskUnits="userSpaceOnUse" x="1152.23" y="-0.911865" width="44" height="31" fill="black">
<rect fill="white" x="1152.23" y="-0.911865" width="44" height="31"/>
<path d="M1181.93 29.0881H1153.23L1167.24 0.0881348H1195.94L1181.93 29.0881Z"/>
</mask>
<path d="M1181.93 29.0881H1153.23L1167.24 0.0881348H1195.94L1181.93 29.0881Z" fill="#292929"/>
<path d="M1181.93 29.0881V29.1763H1181.98L1182.01 29.1265L1181.93 29.0881ZM1153.23 29.0881L1153.15 29.0498L1153.09 29.1763H1153.23V29.0881ZM1167.24 0.0881348V-1.11237e-05H1167.18L1167.16 0.0497939L1167.24 0.0881348ZM1195.94 0.0881348L1196.02 0.126476L1196.08 -1.11237e-05H1195.94V0.0881348ZM1181.93 29.0881V29H1153.23V29.0881V29.1763H1181.93V29.0881ZM1153.23 29.0881L1153.31 29.1265L1167.32 0.126476L1167.24 0.0881348L1167.16 0.0497939L1153.15 29.0498L1153.23 29.0881ZM1167.24 0.0881348V0.176281H1195.94V0.0881348V-1.11237e-05H1167.24V0.0881348ZM1195.94 0.0881348L1195.86 0.0497939L1181.85 29.0498L1181.93 29.0881L1182.01 29.1265L1196.02 0.126476L1195.94 0.0881348Z" fill="black" mask="url(#path-55-outside-28_7_248)"/>
<mask id="path-57-outside-29_7_248" maskUnits="userSpaceOnUse" x="1194.94" y="-0.911865" width="44" height="31" fill="black">
<rect fill="white" x="1194.94" y="-0.911865" width="44" height="31"/>
<path d="M1224.64 29.0881H1195.94L1209.95 0.0881348H1238.64L1224.64 29.0881Z"/>
</mask>
<path d="M1224.64 29.0881H1195.94L1209.95 0.0881348H1238.64L1224.64 29.0881Z" fill="#292929"/>
<path d="M1224.64 29.0881V29.1763H1224.69L1224.71 29.1265L1224.64 29.0881ZM1195.94 29.0881L1195.86 29.0498L1195.8 29.1763H1195.94V29.0881ZM1209.95 0.0881348V-1.11237e-05H1209.89L1209.87 0.0497939L1209.95 0.0881348ZM1238.64 0.0881348L1238.72 0.126476L1238.78 -1.11237e-05H1238.64V0.0881348ZM1224.64 29.0881V29H1195.94V29.0881V29.1763H1224.64V29.0881ZM1195.94 29.0881L1196.02 29.1265L1210.03 0.126476L1209.95 0.0881348L1209.87 0.0497939L1195.86 29.0498L1195.94 29.0881ZM1209.95 0.0881348V0.176281H1238.64V0.0881348V-1.11237e-05H1209.95V0.0881348ZM1238.64 0.0881348L1238.57 0.0497939L1224.56 29.0498L1224.64 29.0881L1224.71 29.1265L1238.72 0.126476L1238.64 0.0881348Z" fill="black" mask="url(#path-57-outside-29_7_248)"/>
</svg>
