<svg width="1935" height="210" viewBox="0 0 1935 210" fill="none" xmlns="http://www.w3.org/2000/svg">
<path d="M102 80.3599C139.8 90.7199 178.72 103.04 178.72 145.88C178.72 184.24 149.6 209.16 99.48 209.16C47.4 209.16 8.2 183.4 8.2 138.88H58.6C58.6 160.16 77.08 168 99.48 168C118.24 168 128.32 160.72 128.32 150.64C128.32 134.68 106.76 131.04 78.48 122.64C44.04 112.56 13.8 97.7199 13.8 60.7599C13.8 17.0799 47.96 -7.00951e-05 91.08 -7.00951e-05C137.84 -7.00951e-05 174.52 24.6399 175.92 65.2399H125.52C123.28 50.1199 110.4 41.1599 91.08 41.1599C75.96 41.1599 64.2 45.9199 64.2 57.1199C64.2 69.4399 76.8 73.3599 102 80.3599ZM241.18 204.68V45.6399H182.94V4.47992H349.54V45.6399H291.58V204.68H241.18ZM460.717 162.96H392.117L379.237 204.68H328.837L401.357 4.47992H451.757L523.997 204.68H473.597L460.717 162.96ZM403.597 124.6H449.517L426.837 50.6799H426.277L403.597 124.6ZM652.613 78.9599C648.973 57.1199 638.893 41.1599 612.293 41.1599C578.973 41.1599 567.773 66.9199 567.773 104.44C567.773 142.24 578.973 168 612.293 168C639.173 168 649.253 152.04 652.613 129.64H703.013C698.533 176.68 669.413 209.16 614.533 209.16C551.253 209.16 517.373 164.92 517.373 104.44C517.373 44.2399 551.253 -7.00951e-05 614.533 -7.00951e-05C669.133 -7.00951e-05 698.253 32.4799 703.013 78.9599H652.613ZM720.728 4.47992H771.128V85.6799L840.848 4.47992H899.648L823.488 92.6799L902.448 204.68H843.648L791.288 128.8L771.128 151.76V204.68H720.728V4.47992ZM989.031 80.3599C1026.83 90.7199 1065.75 103.04 1065.75 145.88C1065.75 184.24 1036.63 209.16 986.511 209.16C934.431 209.16 895.231 183.4 895.231 138.88H945.631C945.631 160.16 964.111 168 986.511 168C1005.27 168 1015.35 160.72 1015.35 150.64C1015.35 134.68 993.791 131.04 965.511 122.64C931.071 112.56 900.831 97.7199 900.831 60.7599C900.831 17.0799 934.991 -7.00951e-05 978.111 -7.00951e-05C1024.87 -7.00951e-05 1061.55 24.6399 1062.95 65.2399H1012.55C1010.31 50.1199 997.431 41.1599 978.111 41.1599C962.991 41.1599 951.231 45.9199 951.231 57.1199C951.231 69.4399 963.831 73.3599 989.031 80.3599ZM1119.9 4.47992H1170.3L1196.06 140.28H1196.62L1227.7 4.47992H1275.3L1306.38 140.28H1306.94L1332.7 4.47992H1383.1L1332.14 204.68H1281.74L1251.78 79.7999H1251.22L1221.26 204.68H1170.86L1119.9 4.47992ZM1498.14 162.96H1429.54L1416.66 204.68H1366.26L1438.78 4.47992H1489.18L1561.42 204.68H1511.02L1498.14 162.96ZM1441.02 124.6H1486.94L1464.26 50.6799H1463.7L1441.02 124.6ZM1575.49 204.68V4.47992H1669.85C1714.37 4.47992 1741.25 24.9199 1741.25 62.7199C1741.25 89.3199 1725.57 106.12 1700.65 111.72V112.28C1750.77 120.96 1732.57 198.52 1744.05 201.88V204.68H1691.69C1681.89 196.28 1700.09 134.96 1657.25 134.96H1625.89V204.68H1575.49ZM1625.89 45.6399V93.7999H1660.05C1680.21 93.7999 1690.85 86.5199 1690.85 69.7199C1690.85 52.9199 1680.21 45.6399 1660.05 45.6399H1625.89ZM1847.63 80.3599C1885.43 90.7199 1924.35 103.04 1924.35 145.88C1924.35 184.24 1895.23 209.16 1845.11 209.16C1793.03 209.16 1753.83 183.4 1753.83 138.88H1804.23C1804.23 160.16 1822.71 168 1845.11 168C1863.87 168 1873.95 160.72 1873.95 150.64C1873.95 134.68 1852.39 131.04 1824.11 122.64C1789.67 112.56 1759.43 97.7199 1759.43 60.7599C1759.43 17.0799 1793.59 -7.00951e-05 1836.71 -7.00951e-05C1883.47 -7.00951e-05 1920.15 24.6399 1921.55 65.2399H1871.15C1868.91 50.1199 1856.03 41.1599 1836.71 41.1599C1821.58 41.1599 1809.83 45.9199 1809.83 57.1199C1809.83 69.4399 1822.43 73.3599 1847.63 80.3599Z" fill="url(#paint0_linear_2032_455)"/>
<defs>
<linearGradient id="paint0_linear_2032_455" x1="968.114" y1="11.4299" x2="968.114" y2="151.18" gradientUnits="userSpaceOnUse">
<stop stop-color="white" stop-opacity="0.09"/>
<stop offset="1" stop-color="white" stop-opacity="0"/>
</linearGradient>
</defs>
</svg>
